<?xml version="1.0" encoding="UTF-8" standalone="no"?>
<svg
   xmlns:dc="http://purl.org/dc/elements/1.1/"
   xmlns:cc="http://creativecommons.org/ns#"
   xmlns:rdf="http://www.w3.org/1999/02/22-rdf-syntax-ns#"
   xmlns:svg="http://www.w3.org/2000/svg"
   xmlns="http://www.w3.org/2000/svg"
   xmlns:sodipodi="http://sodipodi.sourceforge.net/DTD/sodipodi-0.dtd"
   xmlns:inkscape="http://www.inkscape.org/namespaces/inkscape"
   version="1.1"
   id="svg10"
   width="166"
   height="166"
   viewBox="0 0 166 166"
   sodipodi:docname="logo.svg"
   inkscape:version="1.0 (4035a4fb49, 2020-05-01)"
   inkscape:export-filename="C:\Users\karey\logo.png"
   inkscape:export-xdpi="96"
   inkscape:export-ydpi="96">
  <metadata
     id="metadata16">
    <rdf:RDF>
      <cc:Work
         rdf:about="">
        <dc:format>image/svg+xml</dc:format>
        <dc:type
           rdf:resource="http://purl.org/dc/dcmitype/StillImage" />
        <dc:title />
      </cc:Work>
    </rdf:RDF>
  </metadata>
  <defs
     id="defs14" />
  <sodipodi:namedview
     inkscape:document-rotation="0"
     pagecolor="#ffffff"
     bordercolor="#666666"
     borderopacity="1"
     objecttolerance="10"
     gridtolerance="10"
     guidetolerance="10"
     inkscape:pageopacity="0"
     inkscape:pageshadow="2"
     inkscape:window-width="2400"
     inkscape:window-height="1271"
     id="namedview12"
     showgrid="false"
     inkscape:zoom="3.2259036"
     inkscape:cx="25.902976"
     inkscape:cy="75.989903"
     inkscape:window-x="2391"
     inkscape:window-y="-9"
     inkscape:window-maximized="1"
     inkscape:current-layer="g943" />
  <g
     inkscape:groupmode="layer"
     inkscape:label="Image"
     id="g18">
    <g
       id="g943">
      <path
         sodipodi:nodetypes="sssssssss"
         id="path104"
         d="m 74.426186,93.362538 c -1.880231,0.137403 -4.487854,1.006985 -4.88524,2.849872 -3.43159,15.91408 -3.641767,43.3759 0.343988,59.2469 0.397925,1.58451 1.386035,3.68877 3.009881,3.86804 30.592065,3.37732 65.862365,0.99194 83.502725,-0.0944 1.76131,-0.10847 2.27851,-2.88406 2.57989,-4.62278 2.57807,-14.87348 2.39659,-41.26569 0.069,-55.951595 -0.32072,-2.023516 -3.7938,-4.773939 -5.83078,-4.99347 -25.12589,-2.707886 -51.40832,-2.303515 -78.789464,-0.302567 z"
         style="fill:#457b9d;fill-opacity:1;stroke:none;stroke-width:1.16227px;stroke-linecap:butt;stroke-linejoin:miter;stroke-opacity:1" />
      <path
         id="path22-1-7"
         d="m 132.10822,83.42361 c -0.75864,-0.282371 -3.50934,-2.560341 -4.01425,-3.108853 -0.38359,-0.416722 -3.25705,-1.85002 -6.10124,-4.159401 -4.41183,-3.582246 -0.32901,-5.0928 4.20561,-1.831899 1.25764,0.904389 1.38658,0.664843 0.70633,-1.312215 -3.09486,-8.994737 -18.2665,-25.88912 -29.868269,-33.259806 -7.762081,-4.931305 -6.882053,-5.829116 1.318435,-1.345082 8.824034,4.824993 21.529474,16.160549 27.707454,24.720086 5.199,7.203163 5.2196,7.217694 5.56411,3.921849 0.35377,-3.384526 0.92503,-3.770871 3.97782,-2.69026 1.42021,0.502712 1.74545,2.399434 1.74545,10.17877 0,9.972926 -0.41825,10.682064 -5.24145,8.886811 z"
         style="fill:#1d3557;fill-opacity:1;stroke-width:1.05981"
         sodipodi:nodetypes="ssssssssssss" />
      <path
         sodipodi:nodetypes="sssssssss"
         id="path57"
         d="M 9.7604014,6.4377784 C 6.2303586,7.5568666 7.0721001,12.906314 6.6885362,16.589579 4.4889396,37.711734 4.7078316,60.384162 7.1625001,80.296945 c 0.3141392,2.548362 3.8072839,3.873859 6.3195139,4.404459 19.442229,4.106333 57.260133,2.167826 68.566726,-0.471906 2.836247,-0.662175 4.853026,-4.32372 4.897623,-7.235898 C 87.186642,61.30352 90.65756,27.222916 85.366485,7.3087523 84.498743,4.0428072 79.106807,4.2690839 75.729225,4.1627094 53.662639,3.4677384 29.576931,0.1555749 9.7604014,6.4377784 Z"
         style="fill:#e63946;fill-opacity:1;stroke:none;stroke-width:1.01708px;stroke-linecap:butt;stroke-linejoin:miter;stroke-opacity:1" />
      <path
         sodipodi:nodetypes="sssssssssccccsssccsssssssssssssssssssssssssssscccccccccsssssssssssssssssssssssssssssscccccssssssssssssssssssssssssssssssccsscccccccccccccsscccccs"
         id="path22"
         d="M 15.48775,82.672824 C 13.793481,82.089277 11.684557,80.405276 10.56757,78.744003 8.6230804,75.852001 8.6126522,75.674979 8.6126522,45.558787 c 0,-33.332815 0.2175002,-34.953575 5.0241988,-37.4392154 3.876399,-2.004564 62.23103,-2.004564 66.10743,0 4.806698,2.4856404 5.024198,4.1064004 5.024198,37.4392154 0,30.116192 -0.01043,30.293214 -1.954919,33.185216 -1.116986,1.661273 -3.22591,3.345274 -4.920179,3.928821 -4.151734,1.429957 -58.253897,1.429957 -62.405631,0 z M 33.427472,52.130437 V 25.60425 h -9.84036 -9.840359 v 24.651273 c 0,25.299398 0.165397,26.64313 3.422733,27.807272 0.705939,0.252296 4.652779,0.489121 8.770756,0.526275 l 7.48723,0.06755 z M 18.239091,68.677403 c -0.588282,-0.237377 -1.069605,-0.977093 -1.069605,-1.643812 0,-0.938084 1.451307,-1.212218 6.417626,-1.212218 4.915035,0 6.417626,0.279083 6.417626,1.191975 0,0.655587 -0.609079,1.425702 -1.353508,1.711367 -1.589593,0.609985 -8.865118,0.576925 -10.412139,-0.04731 z m 0,-10.268202 c -0.588282,-0.237377 -1.069605,-0.977092 -1.069605,-1.643812 0,-0.938083 1.451307,-1.212218 6.417626,-1.212218 4.915035,0 6.417626,0.279083 6.417626,1.191977 0,0.655586 -0.609079,1.425702 -1.353508,1.711366 -1.589593,0.609984 -8.865118,0.576924 -10.412139,-0.04731 z m 0,-10.2682 c -0.588282,-0.237377 -1.069605,-0.977094 -1.069605,-1.643813 0,-0.938083 1.451307,-1.212219 6.417626,-1.212219 4.915035,0 6.417626,0.279084 6.417626,1.191977 0,0.655587 -0.609079,1.425702 -1.353508,1.711367 -1.589593,0.609984 -8.865118,0.576924 -10.412139,-0.04731 z m 0,-10.268202 c -0.588282,-0.237377 -1.069605,-0.977093 -1.069605,-1.643813 0,-0.938082 1.451307,-1.212218 6.417626,-1.212218 4.915035,0 6.417626,0.279084 6.417626,1.191977 0,0.655587 -0.609079,1.425702 -1.353508,1.711367 -1.589593,0.609984 -8.865118,0.576923 -10.412139,-0.04731 z M 56.530926,52.130437 V 25.60425 h -9.84036 -9.840361 v 26.526187 26.526187 h 9.840361 9.84036 z M 41.342544,68.677403 C 40.754262,68.440026 40.27294,67.70031 40.27294,67.033591 c 0,-0.938084 1.451305,-1.212218 6.417626,-1.212218 4.915034,0 6.417625,0.279083 6.417625,1.191975 0,0.655587 -0.609079,1.425702 -1.353509,1.711367 -1.589592,0.609985 -8.865117,0.576925 -10.412138,-0.04731 z m 0,-10.268202 c -0.588282,-0.237377 -1.069604,-0.977092 -1.069604,-1.643812 0,-0.938083 1.451305,-1.212218 6.417626,-1.212218 4.915034,0 6.417625,0.279083 6.417625,1.191977 0,0.655586 -0.609079,1.425702 -1.353509,1.711366 -1.589592,0.609984 -8.865117,0.576924 -10.412138,-0.04731 z m 0,-10.2682 c -0.588282,-0.237377 -1.069604,-0.977094 -1.069604,-1.643813 0,-0.938083 1.451305,-1.212219 6.417626,-1.212219 4.915034,0 6.417625,0.279084 6.417625,1.191977 0,0.655587 -0.609079,1.425702 -1.353509,1.711367 -1.589592,0.609984 -8.865117,0.576924 -10.412138,-0.04731 z m 0,-10.268202 c -0.588282,-0.237377 -1.069604,-0.977093 -1.069604,-1.643813 0,-0.938082 1.451305,-1.212218 6.417626,-1.212218 4.915034,0 6.417625,0.279084 6.417625,1.191977 0,0.655587 -0.609079,1.425702 -1.353509,1.711367 -1.589592,0.609984 -8.865117,0.576923 -10.412138,-0.04731 z M 78.421008,76.56779 c 0.980855,-1.342702 1.21337,-6.384847 1.21337,-26.312267 V 25.60425 h -9.840359 -9.84036 v 26.606371 26.60637 l 8.626989,-0.294105 c 7.348127,-0.250506 8.80686,-0.540329 9.84036,-1.955096 z M 64.445997,68.677403 c -0.588283,-0.237377 -1.069604,-0.977093 -1.069604,-1.643812 0,-0.938084 1.451305,-1.212218 6.417626,-1.212218 4.915034,0 6.417626,0.279083 6.417626,1.191975 0,0.655587 -0.609079,1.425702 -1.35351,1.711367 -1.589593,0.609985 -8.865117,0.576925 -10.412138,-0.04731 z m 0,-10.268202 c -0.588283,-0.237377 -1.069604,-0.977092 -1.069604,-1.643812 0,-0.938083 1.451305,-1.212218 6.417626,-1.212218 4.915034,0 6.417626,0.279083 6.417626,1.191977 0,0.655586 -0.609079,1.425702 -1.35351,1.711366 -1.589593,0.609984 -8.865117,0.576924 -10.412138,-0.04731 z m 0,-10.2682 c -0.588283,-0.237377 -1.069604,-0.977094 -1.069604,-1.643813 0,-0.938083 1.451305,-1.212219 6.417626,-1.212219 4.915034,0 6.417626,0.279084 6.417626,1.191977 0,0.655587 -0.609079,1.425702 -1.35351,1.711367 -1.589593,0.609984 -8.865117,0.576924 -10.412138,-0.04731 z m 0,-10.268202 c -0.588283,-0.237377 -1.069604,-0.977093 -1.069604,-1.643813 0,-0.938082 1.451305,-1.212218 6.417626,-1.212218 4.915034,0 6.417626,0.279084 6.417626,1.191977 0,0.655587 -0.609079,1.425702 -1.35351,1.711367 -1.589593,0.609984 -8.865117,0.576923 -10.412138,-0.04731 z M 33.427472,17.047416 v -5.134101 h -8.275536 c -9.939633,0 -11.405183,0.841697 -11.405183,6.550247 v 3.717954 h 9.840359 9.84036 z m 23.103454,0 v -5.134101 h -9.84036 -9.840361 v 5.134101 5.1341 h 9.840361 9.84036 z m 23.103452,1.564823 c 0,-5.863165 -1.404363,-6.698924 -11.256505,-6.698924 h -8.424214 v 5.134101 5.1341 h 9.84036 9.840359 z"
         style="fill:#000000;stroke-width:0.855683" />
      <path
         sodipodi:nodetypes="sssscccssscsccccsssccccccssscccccccccsssccccccccccccccccccsscc"
         style="fill:#f1faee;fill-opacity:1;stroke-width:0.852447"
         d="m 73.400331,153.40059 c -1.692922,-2.1522 -1.766771,-3.25506 -1.766771,-26.38575 0,-25.56644 0.269956,-27.554669 3.970129,-29.240574 1.420412,-0.64718 13.774595,-0.946445 39.071031,-0.946445 h 36.9938 l 2.39176,2.0573 2.39177,2.057319 v 25.55773 c 0,23.93656 -0.10301,25.67155 -1.6239,27.3521 -1.60584,1.77445 -2.05781,1.7944 -40.64248,1.7944 H 75.167093 Z m 78.789479,-26.73711 v -24.29475 l -38.147,-0.22189 -38.14701,-0.22188 v 24.16144 c 0,13.28879 0.259676,24.42111 0.577056,24.7385 0.31738,0.31738 17.483531,0.47722 38.147014,0.35518 l 37.56994,-0.22187 z m -68.621994,0 v -15.34405 l 4.475348,0.0203 4.475348,0.0203 3.762497,5.52062 c 2.069369,3.03633 3.828661,5.52061 3.909531,5.52061 0.0809,0 1.84016,-2.48428 3.90953,-5.52061 l 3.76251,-5.52062 4.47533,-0.0203 4.47535,-0.0203 v 15.34405 15.34404 h -4.23241 -4.23241 l -0.24294,-8.63324 -0.24292,-8.63323 -3.31711,4.82134 c -1.8244,2.65173 -3.62618,5.01236 -4.00396,5.24584 -0.37777,0.23348 -2.337495,-1.9183 -4.354935,-4.78173 l -3.668063,-5.20623 -0.242935,8.59362 -0.242927,8.59363 h -4.232412 -4.232422 z m 45.629634,8.37322 -5.80331,-7.09455 3.74225,-0.42623 3.74225,-0.42623 0.2451,-7.88513 0.2451,-7.88513 h 3.77203 3.77204 l 0.2451,7.88513 0.2451,7.88513 3.58338,0.42623 3.58338,0.42623 -3.87335,4.65249 c -2.13034,2.55887 -4.73338,5.75142 -5.78455,7.09455 l -1.9112,2.44207 z"
         id="path22-5" />
      <path
         sodipodi:nodetypes="ssssssssssss"
         style="fill:#a8dadc;fill-opacity:1;stroke-width:1.11071"
         d="m 134.71514,82.624005 c -0.80756,-0.291359 -3.73564,-2.64183 -4.27311,-3.207799 -0.40833,-0.429986 -3.46708,-1.908901 -6.49468,-4.291783 -4.69632,-3.696259 -0.35022,-5.25489 4.47681,-1.890203 1.33874,0.933173 1.47599,0.686003 0.75188,-1.353979 -3.29443,-9.281014 -19.44441,-26.713097 -31.794319,-34.318371 -8.262616,-5.088254 -7.325837,-6.01464 1.403459,-1.387892 9.39305,4.978559 22.91779,16.674893 29.49416,25.506855 5.53425,7.432419 5.55618,7.447413 5.92291,4.046671 0.37658,-3.492246 0.98468,-3.890887 4.23433,-2.775884 1.51179,0.518712 1.858,2.475802 1.858,10.502732 0,10.290336 -0.44522,11.022047 -5.57944,9.169653 z"
         id="path22-1-7-4" />
    </g>
  </g>
</svg>
